<?xml version="1.0" encoding="utf-8"?><!-- Uploaded to: SVG Repo, www.svgrepo.com, Generator: SVG Repo Mixer Tools -->
<svg version="1.1" id="Uploaded to svgrepo.com" xmlns="http://www.w3.org/2000/svg" xmlns:xlink="http://www.w3.org/1999/xlink" 
	 width="800px" height="800px" viewBox="0 0 32 32" xml:space="preserve">
<style type="text/css">
	.bentblocks_een{fill:#0B1719;}
</style>
<path class="bentblocks_een" d="M26.5,8C25.675,8,25,7.1,25,6c0-1.1-0.9-2-2-2H9C7.9,4,7,4.9,7,6c0,1.1-0.675,2-1.5,2S4,8.9,4,10
	c0,1.1,0.675,2,1.5,2c0.38,0,0.921,0,1.5,0v14c0,1.1,0.9,2,2,2h14c1.1,0,2-0.9,2-2V12c0.579,0,1.12,0,1.5,0c0.825,0,1.5-0.9,1.5-2
	C28,8.9,27.325,8,26.5,8z M9,26V12h3v14H9z M14,26V12h4v14H14z M23,26h-3V12h3V26z M6,10c0-0.014,0-0.027,0.001-0.039
	C7.718,9.691,9,8.048,9,6h14c0,2.048,1.282,3.691,2.999,3.961C26,9.973,26,9.986,26,10H6z"/>
</svg>